<?xml version="1.0" encoding="UTF-8" standalone="no"?>
<svg
   xmlns:dc="http://purl.org/dc/elements/1.1/"
   xmlns:cc="http://creativecommons.org/ns#"
   xmlns:rdf="http://www.w3.org/1999/02/22-rdf-syntax-ns#"
   xmlns:svg="http://www.w3.org/2000/svg"
   xmlns="http://www.w3.org/2000/svg"
   xmlns:sodipodi="http://sodipodi.sourceforge.net/DTD/sodipodi-0.dtd"
   xmlns:inkscape="http://www.inkscape.org/namespaces/inkscape"
   fill="#000000"
   height="24"
   viewBox="0 0 24 24"
   width="24"
   id="svg2"
   version="1.1"
   inkscape:version="0.48.5 r10040"
   sodipodi:docname="campusinfo.svg"
   inkscape:export-filename="C:\Users\Leopold\Google Drive\Project Pelican Designs\Icons Png\Homepage Icons\Main Menu Icons\campusinfo.png"
   inkscape:export-xdpi="90"
   inkscape:export-ydpi="90">
  <metadata
     id="metadata12">
    <rdf:RDF>
      <cc:Work
         rdf:about="">
        <dc:format>image/svg+xml</dc:format>
        <dc:type
           rdf:resource="http://purl.org/dc/dcmitype/StillImage" />
        <dc:title></dc:title>
      </cc:Work>
    </rdf:RDF>
  </metadata>
  <defs
     id="defs10" />
  <sodipodi:namedview
     pagecolor="#ffffff"
     bordercolor="#666666"
     borderopacity="1"
     objecttolerance="10"
     gridtolerance="10"
     guidetolerance="10"
     inkscape:pageopacity="0"
     inkscape:pageshadow="2"
     inkscape:window-width="1366"
     inkscape:window-height="705"
     id="namedview8"
     showgrid="false"
     inkscape:zoom="13.906433"
     inkscape:cx="13.839411"
     inkscape:cy="8.2967267"
     inkscape:window-x="-8"
     inkscape:window-y="-8"
     inkscape:window-maximized="1"
     inkscape:current-layer="layer2" />
  <path
     d="M -0.81355932,0.10169492 H 23.186441 V 24.101695 H -0.81355932 z"
     id="path4"
     inkscape:connector-curvature="0"
     style="fill:none" />
  <g
     inkscape:groupmode="layer"
     id="layer1"
     inkscape:label="ref"
     sodipodi:insensitive="true" />
  <g
     inkscape:groupmode="layer"
     id="layer2"
     inkscape:label="actual">
    <path
       d="M 11.982174,4.8567411 2.3941264,7.9137998 11.954383,13.694421 21.514639,7.8582169 z M 2.4775008,8.4140458 1.8938805,14.750496 2.4775008,16.668105 3.0055382,14.750496 z m 3.3349734,2.2233162 -0.500246,3.168225 c -0.07269,0.12115 -0.1111657,0.233724 -0.1111657,0.361288 0,1.116721 4.6916592,4.557797 6.2530745,4.557797 0.660199,0 2.050252,-0.624324 3.446139,-1.417364 -0.09098,-0.321779 -0.138957,-0.650613 -0.138957,-1.000492 0,-2.046535 1.653181,-3.708661 3.696262,-3.724053 L 18.096292,10.637362 11.8988,14.333624 z m 12.7987388,3.001383 c -1.698734,0.305614 -2.408226,1.14911 -2.785749,2.775934 -0.0221,0.09521 0.09729,0.05766 0.137316,0.251866 1.022986,-0.623573 1.522361,-0.683161 2.10738,-1.250798 l -0.03595,-1.024889 0.715974,-0.01798 c -0.0097,-0.433628 0.04609,-0.379997 -0.138971,-0.734133 z"
       id="path3001"
       inkscape:connector-curvature="0"
       sodipodi:nodetypes="ccccccccccccsscscccccsccccc"
       style="fill:#ffffff;fill-opacity:1" />
    <g
       style="display:block"
       id="g6318"
       transform="matrix(0.42033898,0,0,0.42033898,13.261017,11.227118)" />
    <g
       transform="matrix(0.42033898,0,0,0.42033898,24.650848,11.735593)"
       id="g6323"
       style="display:block">
      <g
         transform="translate(0,0.96774194)"
         id="g6325" />
    </g>
    <g
       style="display:block"
       id="info-outline"
       transform="matrix(0.42033898,0,0,0.42033898,13.769492,11.837287)" />
    <path
       style="display:block;fill:#ffffff;fill-opacity:1"
       inkscape:connector-curvature="0"
       d="m 18.190792,18.107805 h 0.718432 v -2.155297 h -0.718432 v 2.155297 z m 0.359216,-5.388243 c -1.97569,0 -3.592162,1.616472 -3.592162,3.592162 0,1.975689 1.616472,3.592162 3.592162,3.592162 1.975689,0 3.592162,-1.616473 3.592162,-3.592162 0,-1.97569 -1.616473,-3.592162 -3.592162,-3.592162 z m 0,6.465892 c -1.580552,0 -2.87373,-1.293179 -2.87373,-2.87373 0,-1.580552 1.293178,-2.87373 2.87373,-2.87373 1.580551,0 2.87373,1.293178 2.87373,2.87373 0,1.580551 -1.293179,2.87373 -2.87373,2.87373 z m -0.359216,-3.951379 h 0.718432 v -0.718432 h -0.718432 v 0.718432 z"
       id="path6327" />
  </g>
</svg>
